<mxfile host="app.diagrams.net" modified="2022-08-05T01:30:40.623Z" agent="5.0 (Windows NT 10.0; Win64; x64) AppleWebKit/537.36 (KHTML, like Gecko) Chrome/104.0.0.0 Safari/537.36" etag="K46jJIeCO483Iz6mOsKb" version="20.2.3" type="github">
  <diagram id="k0_jYAj8yQQVvM7VHgDJ" name="第 1 页">
    <mxGraphModel dx="1422" dy="1875" grid="1" gridSize="10" guides="1" tooltips="1" connect="1" arrows="1" fold="1" page="1" pageScale="1" pageWidth="827" pageHeight="1169" math="0" shadow="0">
      <root>
        <mxCell id="0" />
        <mxCell id="1" parent="0" />
        <mxCell id="2jK7g2Kn6JlWBSyhHRMw-10" style="edgeStyle=orthogonalEdgeStyle;rounded=0;orthogonalLoop=1;jettySize=auto;html=1;exitX=1;exitY=0.5;exitDx=0;exitDy=0;fontSize=14;" parent="1" source="2jK7g2Kn6JlWBSyhHRMw-1" target="2jK7g2Kn6JlWBSyhHRMw-4" edge="1">
          <mxGeometry relative="1" as="geometry" />
        </mxCell>
        <mxCell id="2jK7g2Kn6JlWBSyhHRMw-18" style="edgeStyle=orthogonalEdgeStyle;rounded=0;orthogonalLoop=1;jettySize=auto;html=1;exitX=0.5;exitY=1;exitDx=0;exitDy=0;entryX=0;entryY=0.5;entryDx=0;entryDy=0;fontSize=14;" parent="1" source="2jK7g2Kn6JlWBSyhHRMw-1" target="2jK7g2Kn6JlWBSyhHRMw-16" edge="1">
          <mxGeometry relative="1" as="geometry" />
        </mxCell>
        <mxCell id="2jK7g2Kn6JlWBSyhHRMw-1" value="&lt;font style=&quot;font-size: 14px;&quot;&gt;操作者&lt;/font&gt;" style="rounded=0;whiteSpace=wrap;html=1;fillColor=#dae8fc;strokeColor=#6c8ebf;" parent="1" vertex="1">
          <mxGeometry x="40" y="-460" width="100" height="50" as="geometry" />
        </mxCell>
        <mxCell id="2jK7g2Kn6JlWBSyhHRMw-13" style="edgeStyle=orthogonalEdgeStyle;rounded=0;orthogonalLoop=1;jettySize=auto;html=1;exitX=1;exitY=0.5;exitDx=0;exitDy=0;entryX=0;entryY=0.5;entryDx=0;entryDy=0;fontSize=14;" parent="1" source="2jK7g2Kn6JlWBSyhHRMw-4" target="2jK7g2Kn6JlWBSyhHRMw-6" edge="1">
          <mxGeometry relative="1" as="geometry" />
        </mxCell>
        <mxCell id="2jK7g2Kn6JlWBSyhHRMw-32" style="edgeStyle=orthogonalEdgeStyle;rounded=0;orthogonalLoop=1;jettySize=auto;html=1;exitX=0.5;exitY=0;exitDx=0;exitDy=0;fontSize=20;" parent="1" source="2jK7g2Kn6JlWBSyhHRMw-4" target="2jK7g2Kn6JlWBSyhHRMw-31" edge="1">
          <mxGeometry relative="1" as="geometry" />
        </mxCell>
        <mxCell id="2jK7g2Kn6JlWBSyhHRMw-4" value="预处理&lt;br&gt;数据" style="ellipse;whiteSpace=wrap;html=1;aspect=fixed;fontSize=14;strokeWidth=1;fillColor=#fff2cc;strokeColor=#d6b656;" parent="1" vertex="1">
          <mxGeometry x="260" y="-465" width="60" height="60" as="geometry" />
        </mxCell>
        <mxCell id="2jK7g2Kn6JlWBSyhHRMw-17" style="edgeStyle=orthogonalEdgeStyle;rounded=0;orthogonalLoop=1;jettySize=auto;html=1;exitX=0.5;exitY=1;exitDx=0;exitDy=0;fontSize=14;" parent="1" source="2jK7g2Kn6JlWBSyhHRMw-6" target="2jK7g2Kn6JlWBSyhHRMw-16" edge="1">
          <mxGeometry relative="1" as="geometry" />
        </mxCell>
        <mxCell id="2jK7g2Kn6JlWBSyhHRMw-27" style="edgeStyle=orthogonalEdgeStyle;rounded=0;orthogonalLoop=1;jettySize=auto;html=1;exitX=0.5;exitY=0;exitDx=0;exitDy=0;entryX=1;entryY=0.5;entryDx=0;entryDy=0;fontSize=14;" parent="1" source="2jK7g2Kn6JlWBSyhHRMw-6" target="2jK7g2Kn6JlWBSyhHRMw-26" edge="1">
          <mxGeometry relative="1" as="geometry" />
        </mxCell>
        <mxCell id="2jK7g2Kn6JlWBSyhHRMw-6" value="训练好&lt;br&gt;的模型" style="ellipse;whiteSpace=wrap;html=1;aspect=fixed;fontSize=14;strokeWidth=1;fillColor=#fff2cc;strokeColor=#d6b656;" parent="1" vertex="1">
          <mxGeometry x="430" y="-465" width="60" height="60" as="geometry" />
        </mxCell>
        <mxCell id="2jK7g2Kn6JlWBSyhHRMw-12" value="导入数据" style="text;html=1;align=center;verticalAlign=middle;resizable=0;points=[];autosize=1;strokeColor=none;fillColor=none;fontSize=14;" parent="1" vertex="1">
          <mxGeometry x="150" y="-458" width="80" height="30" as="geometry" />
        </mxCell>
        <mxCell id="2jK7g2Kn6JlWBSyhHRMw-14" value="训练数据" style="text;html=1;align=center;verticalAlign=middle;resizable=0;points=[];autosize=1;strokeColor=none;fillColor=none;fontSize=14;" parent="1" vertex="1">
          <mxGeometry x="334" y="-460" width="80" height="30" as="geometry" />
        </mxCell>
        <mxCell id="2jK7g2Kn6JlWBSyhHRMw-21" style="edgeStyle=orthogonalEdgeStyle;rounded=0;orthogonalLoop=1;jettySize=auto;html=1;exitX=1;exitY=0.5;exitDx=0;exitDy=0;fontSize=14;" parent="1" source="2jK7g2Kn6JlWBSyhHRMw-16" target="2jK7g2Kn6JlWBSyhHRMw-20" edge="1">
          <mxGeometry relative="1" as="geometry" />
        </mxCell>
        <mxCell id="2jK7g2Kn6JlWBSyhHRMw-16" value="预测模型" style="ellipse;whiteSpace=wrap;html=1;aspect=fixed;fontSize=14;strokeWidth=1;fillColor=#fff2cc;strokeColor=#d6b656;" parent="1" vertex="1">
          <mxGeometry x="430" y="-350" width="60" height="60" as="geometry" />
        </mxCell>
        <mxCell id="2jK7g2Kn6JlWBSyhHRMw-19" value="特征值与模型同时输入" style="text;html=1;align=center;verticalAlign=middle;resizable=0;points=[];autosize=1;strokeColor=none;fillColor=none;fontSize=14;" parent="1" vertex="1">
          <mxGeometry x="205" y="-350" width="160" height="30" as="geometry" />
        </mxCell>
        <mxCell id="2jK7g2Kn6JlWBSyhHRMw-20" value="预测结果" style="ellipse;whiteSpace=wrap;html=1;aspect=fixed;fontSize=14;strokeWidth=1;fillColor=#fff2cc;strokeColor=#d6b656;" parent="1" vertex="1">
          <mxGeometry x="590" y="-350" width="60" height="60" as="geometry" />
        </mxCell>
        <mxCell id="2jK7g2Kn6JlWBSyhHRMw-22" value="&lt;font style=&quot;font-size: 20px;&quot;&gt;+&lt;/font&gt;" style="text;html=1;align=center;verticalAlign=middle;resizable=0;points=[];autosize=1;strokeColor=none;fillColor=none;fontSize=16;" parent="1" vertex="1">
          <mxGeometry x="407" y="-369" width="40" height="40" as="geometry" />
        </mxCell>
        <mxCell id="2jK7g2Kn6JlWBSyhHRMw-23" value="&lt;font style=&quot;font-size: 14px;&quot;&gt;输入特征值&lt;/font&gt;" style="text;html=1;align=center;verticalAlign=middle;resizable=0;points=[];autosize=1;strokeColor=none;fillColor=none;fontSize=16;" parent="1" vertex="1">
          <mxGeometry x="470" y="-400" width="90" height="30" as="geometry" />
        </mxCell>
        <mxCell id="2jK7g2Kn6JlWBSyhHRMw-24" value="计算" style="text;html=1;align=center;verticalAlign=middle;resizable=0;points=[];autosize=1;strokeColor=none;fillColor=none;fontSize=14;" parent="1" vertex="1">
          <mxGeometry x="510" y="-350" width="50" height="30" as="geometry" />
        </mxCell>
        <mxCell id="2jK7g2Kn6JlWBSyhHRMw-26" value="模型记录" style="shape=partialRectangle;whiteSpace=wrap;html=1;top=0;bottom=0;fillColor=#e1d5e7;fontSize=14;strokeWidth=1;rotation=90;align=center;horizontal=0;strokeColor=#9673a6;" parent="1" vertex="1">
          <mxGeometry x="445" y="-595" width="30" height="90" as="geometry" />
        </mxCell>
        <mxCell id="2jK7g2Kn6JlWBSyhHRMw-28" value="模型信息" style="text;html=1;align=center;verticalAlign=middle;resizable=0;points=[];autosize=1;strokeColor=none;fillColor=none;fontSize=14;" parent="1" vertex="1">
          <mxGeometry x="460" y="-505" width="80" height="30" as="geometry" />
        </mxCell>
        <mxCell id="2jK7g2Kn6JlWBSyhHRMw-30" value="&lt;span style=&quot;color: rgb(0, 0, 0); font-family: Helvetica; font-size: 14px; font-style: normal; font-variant-ligatures: normal; font-variant-caps: normal; font-weight: 400; letter-spacing: normal; orphans: 2; text-align: center; text-indent: 0px; text-transform: none; widows: 2; word-spacing: 0px; -webkit-text-stroke-width: 0px; background-color: rgb(248, 249, 250); text-decoration-thickness: initial; text-decoration-style: initial; text-decoration-color: initial; float: none; display: inline !important;&quot;&gt;参数调整&lt;/span&gt;" style="text;whiteSpace=wrap;html=1;fontSize=14;" parent="1" vertex="1">
          <mxGeometry x="164" y="-436" width="60" height="28" as="geometry" />
        </mxCell>
        <mxCell id="2jK7g2Kn6JlWBSyhHRMw-31" value="参数记录" style="shape=partialRectangle;whiteSpace=wrap;html=1;top=0;bottom=0;fillColor=#e1d5e7;fontSize=14;strokeWidth=1;rotation=90;align=center;horizontal=0;strokeColor=#9673a6;" parent="1" vertex="1">
          <mxGeometry x="275" y="-595" width="30" height="90" as="geometry" />
        </mxCell>
        <mxCell id="2jK7g2Kn6JlWBSyhHRMw-33" value="参数信息" style="text;html=1;align=center;verticalAlign=middle;resizable=0;points=[];autosize=1;strokeColor=none;fillColor=none;fontSize=14;" parent="1" vertex="1">
          <mxGeometry x="290" y="-505" width="80" height="30" as="geometry" />
        </mxCell>
      </root>
    </mxGraphModel>
  </diagram>
</mxfile>
